<svg xmlns="http://www.w3.org/2000/svg" width="1em" height="1em" fill="currentColor" stroke="currentColor" stroke-width="0" viewBox="0 0 512 512"><path stroke="none" d="M510.945 116.865c-8.82-1.102-16.537 1.103-20.947 4.41s-11.025 12.127-2.205 25.357c7.717 11.025 12.127 17.64 15.435 34.178 7.717 38.588-29.878 52.369-58.753 46.316-15.181-3.572-30.363-8.93-42.865-16.967-5.358-3.573-8.93-6.252-14.288-10.717 2.585-1.469 5.653-5.27 8.149-9.59.823-1.426 1.563-2.876 2.567-4.698 13.395 10.716 33.637 21.234 50.902 24.111 26.725 4.62 50.98-18.533 23.418-54.915-13.23-16.538-4.41-33.075 0-38.588 3.307-4.41 7.717-8.82 12.127-11.025 8.82-4.41 18.743-3.307 26.46-2.205zM361.424 78.884c.95 0 1.914 0 2.864.036 12.317.857 26.606 4.429 40.001 11.573 31.855 18.388 48.223 57.154 34.828 101.805-14.288-4.465-25.005-10.716-34.828-18.753 7.144-21.433-5.529-41.07-18.537-48.58-7.64-4.413-16.016-6.588-24.261-6.631-15.739-.085-30.945 7.6-39.37 22.19-12.837 22.23-4.901 51.808 17.33 64.648 10.325 5.962 26.438 11.238 38.94 2.308 8.038 6.25 10.717 8.037 16.075 11.609 9.823 6.251 12.502 7.144 21.432 10.716-23.218 16.968-47.06 22.402-69.098 18.73h-.036L245.619 413.374c-20.82 36.055-51.273 58.117-82.923 65.664-31.647 7.547-63.583 1.399-89.515-14.503C21.317 432.73-6.82 359.027 29.22 288.744L49.147 254.2l.19-.338c23.647-43.44 54.305-72.942 90.833-90.76-15.405 55.356-20.978 110.711-22.542 164.044L86.181 288.18l-5.914-3.617-12.648 22.041c-22.94 47.425-.804 89.248 28.995 107.522 43.044 19.937 75.43 14.489 102.023-27.88L298.912 222.66c-24.98-27.035-30.983-68.781-11.79-102.023 15.672-27.146 44.168-41.994 73.576-41.894z"/></svg>