<?xml version="1.0" encoding="UTF-8" standalone="no"?><!DOCTYPE svg PUBLIC "-//W3C//DTD SVG 1.1//EN" "http://www.w3.org/Graphics/SVG/1.1/DTD/svg11.dtd"><svg xmlns="http://www.w3.org/2000/svg" xmlns:xlink="http://www.w3.org/1999/xlink" version="1.1" width="149" height="138" viewBox="50 45 149 138">
<desc>Created with SVGMaker Editor 3.0.0</desc>
<defs>
</defs>
<path transform="translate(0,0)" style="fill: rgb(0,0,0)" stroke-linecap="round" d="M128.55 46.5112C123.95 47.2106 122.85 48.0098 113.55 57.4014 108.05 62.9963 102.45 68.5913 101.15 69.8901 98.45 72.5877 96.85 76.3843 93.85 86.8748 89.95 100.7623 89.85 102.261 92.15 109.3546 94.55 116.8478 96.55 122.243 99.05 127.8379 103.35 137.4293 104.05 139.6273 104.05 143.324 104.05 146.8208 103.55 147.6201 100.85 149.3186 95.35 152.7155 88.15 154.414 76.45 155.2133L65.45 155.9126 57.75 163.5058C51.05 170.0999 50.05 171.5985 50.05 174.6957 50.05 176.594 50.55 179.3915 51.05 180.8901L52.05 183.4878 63.85 182.7884C70.25 182.3888 75.65 181.9892 75.85 181.7893 76.05 181.5895 75.65 179.6912 74.95 177.4932 73.95 173.8964 74.05 173.1971 75.95 170.3996 78.45 166.9027 89.65 160.2088 91.75 161.0081 92.75 161.4077 91.75 162.8064 88.35 165.9036 83.85 169.8001 83.65 170.2997 85.15 171.7983 86.55 173.1971 89.85 173.5967 104.15 174.1962 113.75 174.5958 123.15 174.7956 125.05 174.7956L128.55 174.5958 128.85 162.5067C128.95 155.8127 128.85 150.3177 128.55 150.3177 128.15 150.3177 125.35 152.1161 122.35 154.3141 119.25 156.5121 116.35 158.3105 115.85 158.3105 115.45 158.3105 115.05 150.8172 115.05 141.5256 115.05 126.8388 114.85 124.441 113.05 121.3438 108.45 112.9513 106.85 108.855 107.05 105.4581 107.05 103.4599 107.15 98.5643 107.15 94.5679 107.25 89.7722 107.65 87.3744 108.35 87.3744 109.05 87.3744 112.95 85.9756 117.05 84.3771 122.45 82.1791 125.65 80.081 128.65 76.8838 131.45 73.7866 133.65 72.3879 135.35 72.3879 138.75 72.3879 141.05 74.8856 141.05 78.3825 141.05 79.981 142.05 82.8784 143.15 84.8766 145.15 88.1737 145.25 89.3726 144.55 98.4644 143.95 107.756 144.05 108.9549 146.55 116.0486 148.75 122.1431 149.15 124.8406 148.85 130.4356 148.45 137.9288 148.75 137.4293 139.35 143.8235L134.05 147.4203 134.05 160.7083 134.05 173.9964 141.85 174.5958C147.05 174.8955 153.35 174.396 161.05 173.0972 175.65 170.6993 176.05 170.5994 176.05 168.2016 176.05 164.7047 177.95 166.2034 179.05 170.4995 181.65 180.5904 180.75 179.7911 189.65 179.3915 193.95 179.2916 197.85 178.8919 198.35 178.5922 198.75 178.3924 199.05 175.5949 199.05 172.2979 199.05 166.8028 198.75 166.2034 194.55 161.5076 189.25 155.6129 185.45 154.0144 172.85 152.3159 166.05 151.4167 163.05 150.4176 159.55 148.1197 157.05 146.5211 155.05 144.7227 155.05 144.3231 155.05 143.9234 156.55 141.2259 158.45 138.5283 160.35 135.7308 162.65 131.4347 163.55 128.9369 165.25 124.441 165.25 124.2412 162.65 115.9486 159.95 107.6561 159.55 102.5607 161.55 102.0612 162.15 101.9612 162.85 104.2592 163.25 107.2565 163.75 111.4527 164.55 113.351 167.35 116.2484 169.65 118.5463 171.05 121.2439 171.45 123.8415 172.85 132.0342 174.35 138.3285 175.05 138.3285 176.15 138.3285 176.95 128.7371 177.25 113.8505 177.45 99.3636 177.15 98.2646 170.15 88.3735 167.95 85.3762 165.75 80.6804 165.15 78.0828 164.55 75.4851 163.35 71.8883 162.45 70.1899 160.35 66.0936 149.55 52.6057 146.45 50.108 144.25 48.4095 135.75 45.2124 134.15 45.5121 133.85 45.612 131.35 46.0116 128.55 46.5112Z"/>
</svg>