<svg xmlns="http://www.w3.org/2000/svg" width="1em" height="1em" fill="currentColor" stroke="currentColor" stroke-width="0" viewBox="0 0 96 96"><path stroke="none" d="m75.4 0 5.2 5.2-6.5 6.5-5.2-5.2zm15.2 15.3 5.2 5.2-6.5 6.5-5.2-5.2zM63.1 3.8l13.4 13.4-24.9 25c-2.3-6.5-6.9-10.9-13.4-13.5zm15.6 15.5 13.4 13.4-24.8 24.8c-2.4-6.4-7-10.9-13.4-13.4zM35.2 29.4l1.6.7c6.6 2.5 11 7 14.6 14.5 7.5 3.5 12 8 14.4 14.4l.6 1.7-6.9 6.9-.6-1.7c-2.6-6.2-7.2-10.6-13.4-13.4l-1.4-.7-.7-1.4c-2.5-6.3-7-10.8-13.4-13.3l-1.9-.8zm-3.5 6.4c5.8 2.7 10.8 6.7 14 14.5 7.9 3.1 11.7 8.3 14.7 14.3l4-4.1Q60.65 50.75 50.9 47l-1.4-.5-.7-1.6c-2.4-6.4-6.8-10.8-13.2-13.1zm-3.1 2.6C35 41 39.5 45.5 42 51.8L17.2 76.6 3.8 63.2zm15.6 15.5C50.5 56.5 55 61 57.5 67.2L32.7 92.1 19.3 78.8zM6.6 69.1l5.1 5.1-6.6 6.6L0 75.7zm15.2 15 5.2 5.2-6.7 6.7-5.2-5.2z"/></svg>