<svg xmlns="http://www.w3.org/2000/svg" width="20" height="20" version="1.0" viewBox="0 0 96 96"><path d="M31.972 10.032c-3.108 1.11-3.108 1.11-6.45 3.337v.111l3.453 6.906 3.453 6.793-2.562 1.671c-1.448.891-6.014 4.9-10.024 9.021-9.132 9.022-12.14 16.15-12.14 28.178.112 12.474 4.121 19.49 13.922 23.835 3.787 1.67 8.576 2.004 29.515 2.339 22.275.334 25.505.222 28.735-1.56 6.483-3.596 8.13-10.613 8.019-20.715 0-13.143-1.225-18.043-6.794-26.285-4.344-6.905-13.254-12.474-2.116-4.678 2.004 1.894 3.34 1.782 6.57-.78 2.785-2.115 2.785-2.115.558-3.897-3.898-3.119-7.905-4.783-14.089-6.614-5.698-1.784-3.788-1.172-7.687-2.253.28-1.157 1.283-4.053 2.73-7.171l2.785-5.458-4.818-1.803C58.156 8.463 41.8 7.702 34.837 9.257zm32.32 25.86c10.964 8.897 12.815 20.013 13.861 32.173-.058 8.221-1.21 10.156-7.322 13.206-4.583 1.844-11.048 1.765-19.865 1.717-6.962 0-20.83-.387-23.851-1.986-6.493-3.119-9.275-5.255-9.049-14.233.371-13.919 4.473-21.812 15.721-30.852 7.55-5.602 7.645-5.602 14.292-5.65 9.116.087 9.116.087 16.213 5.581zm-31.226-19.99c9.031-3.596 21.07-3.537 29.274.21-4.233 9.56-3.28 7.388-3.477 7.795-9.736-1.996-12.258-1.936-21.125-.665z"/></svg>